<?xml version="1.0" encoding="UTF-8"?>
<svg id="Camada_1" data-name="Camada 1" xmlns="http://www.w3.org/2000/svg" viewBox="0 0 512 512">
  <defs>
    <style>
      .cls-1 {
        fill: #0e828e;
      }

      .cls-1, .cls-2, .cls-3 {
        stroke-width: 0px;
      }

      .cls-2 {
        fill: #fff;
      }

      .cls-3 {
        fill: #1094ab;
      }
    </style>
  </defs>
  <g>
    <path class="cls-2" d="m358.45,167.09h-204.11c-21.93,0-39.71,17.78-39.71,39.71v94.15c0,21.93,17.78,39.71,39.71,39.71h204.11c2.01,0,3.99-.14,5.92-.44,19.12-2.86,33.79-19.31,33.79-39.19v-94.24c0-21.93-17.78-39.71-39.71-39.71Zm-91.45,46.98c0-4.69,3.81-8.5,8.5-8.5h25.32c4.75,0,8.6,3.85,8.6,8.6v25.32c0,4.69-3.81,8.5-8.5,8.5h-25.41c-4.69,0-8.5-3.81-8.5-8.5v-25.41Zm-53.45-8.5h25.32c4.69,0,8.5,3.81,8.5,8.5v25.41c0,4.69-3.81,8.5-8.5,8.5h-25.41c-4.69,0-8.5-3.81-8.5-8.5v-25.32c0-4.44,3.38-8.11,7.72-8.55.29-.03.58-.05.88-.05Zm-29.8,95.08c0,4.74-3.84,8.6-8.6,8.6h-25.32c-4.69,0-8.5-3.81-8.5-8.5v-25.41c0-4.69,3.81-8.5,8.5-8.5h25.32c4.75,0,8.6,3.85,8.6,8.6v25.22Zm-8.5-52.66h-25.41c-4.69,0-8.5-3.81-8.5-8.5v-25.41c0-4.69,3.81-8.5,8.5-8.5h25.32c4.75,0,8.6,3.85,8.6,8.6v25.32c0,4.69-3.81,8.5-8.5,8.5Zm134.95,52.66c0,4.74-3.82,8.6-8.53,8.6h-88.21c-4.69,0-8.5-3.81-8.5-8.5v-25.41c0-4.69,3.81-8.5,8.5-8.5h88.21c4.72,0,8.53,3.85,8.53,8.6v25.22Zm53.55,8.6h-25.41c-4.69,0-8.5-3.81-8.5-8.5v-25.41c0-4.69,3.81-8.5,8.5-8.5h25.41c4.69,0,8.5,3.81,8.5,8.5v25.41c0,4.69-3.81,8.5-8.5,8.5Zm0-61.26h-25.41c-4.69,0-8.5-3.81-8.5-8.5v-25.41c0-4.69,3.81-8.5,8.5-8.5h25.41c4.69,0,8.5,3.81,8.5,8.5v25.41c0,4.69-3.81,8.5-8.5,8.5Z"/>
    <path class="cls-3" d="m257.47,247.99l71.69-59.79c6.39-5.22,10.09-13.03,10.09-21.29v-82.29c0-15.18-12.31-27.49-27.49-27.49h-108.39c-15.18,0-27.49,12.31-27.49,27.49v82.61c0,8.07,3.54,15.73,9.69,20.95l71.89,59.81Z"/>
    <g>
      <path class="cls-2" d="m310.02,132.26c0,12.98-3.55,25.12-9.71,35.52-1.63,2.75-5.26,3.51-7.86,1.68-1.5-1.05-2.34-2.75-2.34-4.48,0-.94.24-1.89.76-2.75,5.23-8.78,8.22-19.02,8.22-29.97s-2.8-20.5-7.7-29.07c-1.39-2.44-.68-5.54,1.63-7.14,2.63-1.85,6.3-1.05,7.89,1.73,5.8,10.16,9.11,21.95,9.11,34.48Z"/>
      <path class="cls-2" d="m289.87,132.17c0,8.15-2.12,15.81-5.83,22.44-1.36,2.43-4.56,3.1-6.84,1.49h-.01c-2-1.41-2.6-4.1-1.4-6.25,2.92-5.24,4.57-11.27,4.57-17.68s-1.5-11.86-4.15-16.91c-1.12-2.13-.51-4.77,1.45-6.14,2.36-1.66,5.63-.84,6.96,1.72,3.35,6.37,5.24,13.63,5.24,21.33Z"/>
      <path class="cls-2" d="m263.07,98.43v68.72c0,5.02-6.02,7.62-9.7,4.19l-20.71-19.27c-.47-.43-1.1-.69-1.74-.69h-13.83c-4.97,0-9-4.03-9-9v-18.92c0-4.97,4.03-9,9-9h13.52c.65,0,1.27-.24,1.74-.69l21.02-19.55c3.68-3.44,9.7-.83,9.7,4.2Z"/>
    </g>
  </g>
  <g>
    <path class="cls-1" d="m73,371.3h15.36c4.2,0,7.78.81,10.75,2.42,2.97,1.62,5.25,3.96,6.85,7.04,1.59,3.08,2.39,6.81,2.39,11.19v.06c0,4.39-.79,8.14-2.37,11.26-1.58,3.13-3.87,5.51-6.85,7.17-2.98,1.65-6.57,2.48-10.77,2.48h-15.36v-41.63Zm15,35.34c2.87,0,5.29-.56,7.26-1.68,1.97-1.12,3.46-2.76,4.49-4.92,1.02-2.16,1.53-4.82,1.53-7.99v-.06c0-3.09-.52-5.71-1.55-7.86s-2.54-3.78-4.51-4.88c-1.98-1.1-4.38-1.66-7.22-1.66h-7.14v29.06h7.14Z"/>
    <path class="cls-1" d="m114.53,376.65c-.78-.78-1.17-1.71-1.17-2.8s.39-2.04,1.17-2.81c.78-.77,1.73-1.15,2.85-1.15s2.11.38,2.88,1.15c.78.77,1.16,1.7,1.16,2.81s-.39,2.02-1.16,2.8c-.78.78-1.74,1.16-2.88,1.16s-2.08-.39-2.85-1.16Zm-.69,5.64h7.07v30.63h-7.07v-30.63Z"/>
    <path class="cls-1" d="m135.12,423.02c-1.98-.75-3.55-1.78-4.73-3.09-1.17-1.31-1.9-2.77-2.19-4.39l-.06-.26h6.93l.11.23c.38.9,1.16,1.64,2.34,2.24,1.18.59,2.68.89,4.5.89,2.31,0,4.08-.58,5.31-1.75,1.23-1.17,1.85-2.74,1.85-4.71v-4.75h-.15c-.57,1.13-1.33,2.09-2.28,2.9-.95.81-2.06,1.44-3.33,1.9-1.27.45-2.65.68-4.14.68-2.61,0-4.89-.64-6.82-1.93-1.93-1.28-3.43-3.11-4.48-5.47s-1.58-5.17-1.58-8.43v-.03c0-3.32.54-6.17,1.61-8.55,1.07-2.38,2.58-4.22,4.52-5.53,1.94-1.3,4.23-1.96,6.87-1.96,1.47,0,2.83.25,4.07.76s2.32,1.2,3.26,2.09c.93.89,1.69,1.94,2.28,3.14h.18v-4.71h7.07v30.12c0,2.34-.58,4.39-1.73,6.16-1.15,1.76-2.79,3.13-4.91,4.11-2.12.97-4.64,1.46-7.55,1.46-2.65,0-4.96-.38-6.94-1.13Zm9.76-17.02c1.11-.79,1.97-1.91,2.59-3.37.62-1.45.93-3.15.93-5.1v-.03c0-1.97-.31-3.67-.95-5.11-.63-1.44-1.5-2.55-2.61-3.34-1.11-.78-2.4-1.17-3.87-1.17s-2.86.39-3.98,1.17c-1.13.78-2,1.89-2.61,3.32s-.92,3.14-.92,5.13v.03c0,1.99.31,3.7.92,5.14s1.48,2.55,2.61,3.34c1.13.78,2.45,1.17,3.98,1.17s2.79-.4,3.9-1.19Z"/>
    <path class="cls-1" d="m162.53,376.65c-.78-.78-1.17-1.71-1.17-2.8s.39-2.04,1.17-2.81c.78-.77,1.73-1.15,2.85-1.15s2.11.38,2.88,1.15c.78.77,1.16,1.7,1.16,2.81s-.39,2.02-1.16,2.8c-.78.78-1.74,1.16-2.88,1.16s-2.08-.39-2.85-1.16Zm.01,5.64h7.07v30.63h-7.07v-30.63Z"/>
    <path class="cls-1" d="m179.71,411.53c-1.5-1.34-2.25-3.54-2.25-6.59v-17.15h-4.71v-5.5h4.71v-7.85h7.07v7.85h5.5v5.5h-5.5v16.06c0,1.47.32,2.49.96,3.05s1.59.84,2.83.84c.35,0,.66-.01.93-.04.27-.03.53-.05.77-.07v5.66c-.41.06-.91.11-1.49.17-.59.06-1.24.08-1.97.08-3.07,0-5.36-.67-6.86-2.01Z"/>
    <path class="cls-1" d="m198.85,412.28c-1.55-.78-2.75-1.87-3.61-3.27-.86-1.4-1.29-3-1.29-4.81v.07c0-2.74,1.03-4.91,3.08-6.52,2.05-1.6,4.94-2.51,8.68-2.73l11.81-.73v4.78s-10.9.68-10.9.68c-1.81.12-3.19.55-4.15,1.3-.96.75-1.44,1.74-1.44,2.97h0c0,1.26.48,2.26,1.44,2.98s2.23,1.09,3.83,1.09c1.4,0,2.64-.28,3.74-.84,1.1-.56,1.96-1.33,2.6-2.3.64-.97.96-2.07.96-3.29v-9.1c0-1.53-.48-2.73-1.44-3.62-.96-.89-2.34-1.33-4.15-1.33-1.67,0-3.01.36-4.02,1.07s-1.63,1.64-1.88,2.76l-.06.26h-6.56l.03-.34c.15-1.79.75-3.4,1.8-4.82,1.04-1.42,2.49-2.54,4.35-3.36,1.85-.82,4.05-1.23,6.6-1.23s4.72.42,6.57,1.26c1.85.84,3.29,2.01,4.3,3.52,1.02,1.51,1.53,3.28,1.53,5.32v20.86h-7.07v-4.71h-.17c-.58,1.06-1.33,1.99-2.25,2.78-.92.79-1.98,1.4-3.16,1.82-1.18.42-2.45.64-3.8.64-2.02,0-3.81-.39-5.36-1.17Z"/>
    <path class="cls-1" d="m223.86,382.3h7.54l7.22,24.35h.18l7.22-24.35h7.37l-10.78,30.63h-7.92l-10.84-30.63Z"/>
    <path class="cls-1" d="m261.47,411.78c-2.23-1.29-3.96-3.13-5.19-5.53-1.23-2.39-1.85-5.25-1.85-8.57v-.06c0-3.3.62-6.14,1.86-8.54,1.24-2.39,2.98-4.24,5.21-5.53,2.23-1.29,4.84-1.93,7.82-1.93s5.63.64,7.87,1.93c2.24,1.29,3.98,3.13,5.22,5.51,1.24,2.39,1.86,5.24,1.86,8.55v.06c0,3.34-.62,6.2-1.85,8.6-1.23,2.39-2.96,4.23-5.19,5.51-2.23,1.28-4.86,1.92-7.88,1.92s-5.65-.64-7.88-1.93Zm12.26-5.21c1.11-.79,1.97-1.93,2.57-3.44.6-1.5.91-3.32.91-5.45v-.06c0-2.11-.31-3.91-.92-5.41-.61-1.5-1.48-2.64-2.6-3.42-1.12-.79-2.44-1.18-3.95-1.18s-2.77.39-3.9,1.18c-1.12.79-1.99,1.93-2.62,3.42-.62,1.49-.93,3.3-.93,5.41v.06c0,2.13.31,3.94.93,5.45.62,1.51,1.5,2.65,2.62,3.44,1.12.79,2.44,1.18,3.95,1.18s2.83-.39,3.94-1.18Z"/>
    <path class="cls-1" d="m294.56,397.64l-9.8-15.34h8.02l6.3,11h.15l6.27-11h7.79l-9.85,15.14,9.74,15.49h-7.9l-6.39-11h-.14l-6.34,11h-7.75l9.91-15.29Z"/>
    <path class="cls-1" d="m337.93,412.1c-2.58-1.3-4.58-3.12-5.99-5.45-1.41-2.33-2.11-5.05-2.11-8.15v-27.2h7.85v26.59c0,2.91.86,5.25,2.57,7.02,1.72,1.77,4.14,2.65,7.26,2.65s5.56-.88,7.26-2.65c1.7-1.77,2.55-4.11,2.55-7.02v-26.59h7.07v27.2c0,3.09-.69,5.8-2.08,8.14-1.39,2.34-3.38,4.16-5.96,5.46-2.58,1.3-5.65,1.95-9.21,1.95s-6.62-.65-9.21-1.95Z"/>
    <path class="cls-1" d="m378.12,411.99c-2.4-.95-4.29-2.31-5.67-4.08-1.38-1.77-2.16-3.88-2.33-6.33l-.03-.43h6.78l.02.13c.16.93.47,1.83,1.03,2.59.87,1.19,2.16,2.08,3.86,2.66,1.36.47,2.91.7,4.65.7s3.28-.24,4.56-.71c1.28-.47,2.28-1.16,2.97-2.04.7-.88,1.04-1.92,1.04-3.1v-.03c0-1.54-.58-2.76-1.75-3.65-1.17-.89-3.11-1.63-5.81-2.2l-4.49-.91c-4.1-.84-7.17-2.21-9.22-4.12-2.05-1.91-3.07-4.4-3.07-7.46v-.03c.02-2.43.69-4.56,2.01-6.38,1.32-1.82,3.15-3.23,5.49-4.25,2.34-1.02,5-1.53,8-1.53s5.69.5,7.97,1.48c2.28.99,4.07,2.37,5.38,4.14s2.02,3.82,2.16,6.16l.03.49h-6.78l-.06-.37c-.17-1.2-.63-2.22-1.36-3.07s-1.7-1.5-2.9-1.95c-1.2-.46-2.58-.69-4.15-.69s-3.03.23-4.22.7-2.11,1.12-2.75,1.95c-.65.84-.97,1.81-.97,2.91v.03c0,1.45.59,2.62,1.78,3.52,1.19.9,3.04,1.61,5.55,2.13l4.49.91c4.37.89,7.55,2.26,9.54,4.1,1.99,1.84,2.99,4.36,2.99,7.58v.03c0,2.55-.65,4.77-1.96,6.65s-3.18,3.34-5.62,4.37c-2.45,1.03-5.37,1.54-8.77,1.54-3.21,0-6.01-.48-8.41-1.43Z"/>
    <path class="cls-1" d="m408.37,371.3h7.85v41.63h-7.85v-41.63Zm3.93,21.99h10.43c2.68,0,4.76-.68,6.22-2.05,1.47-1.37,2.2-3.29,2.2-5.78v-.06c0-2.5-.73-4.43-2.2-5.79-1.47-1.36-3.54-2.04-6.22-2.04h-10.43v-6.28h12.42c2.83,0,5.32.59,7.46,1.76,2.14,1.17,3.82,2.82,5.02,4.93,1.2,2.12,1.8,4.59,1.8,7.42v.06c0,2.81-.6,5.27-1.8,7.39-1.2,2.12-2.88,3.77-5.02,4.95-2.14,1.18-4.63,1.77-7.46,1.77h-12.42v-6.28Z"/>
  </g>
</svg>