<?xml version="1.0" encoding="UTF-8"?>
<svg id="Camada_1" data-name="Camada 1" xmlns="http://www.w3.org/2000/svg" viewBox="0 0 361 361">
  <defs>
    <style>
      .cls-1 {
        fill: #fff;
      }

      .cls-1, .cls-2 {
        stroke-width: 0px;
      }

      .cls-2 {
        fill: #1094ab;
      }
    </style>
  </defs>
  <path class="cls-1" d="m310.44,140H50.56c-27.93,0-50.56,22.64-50.56,50.56v119.87c0,27.93,22.64,50.56,50.56,50.56h259.87c2.56,0,5.09-.18,7.54-.56,24.34-3.64,43.02-24.59,43.02-49.89v-119.98c0-27.93-22.64-50.56-50.56-50.56Zm-116.44,59.82c0-5.98,4.85-10.82,10.82-10.82h32.23c6.05,0,10.95,4.91,10.95,10.95v32.23c0,5.98-4.85,10.82-10.82,10.82h-32.36c-5.98,0-10.82-4.85-10.82-10.82v-32.36Zm-68.05-10.82h32.23c5.98,0,10.82,4.85,10.82,10.82v32.36c0,5.98-4.85,10.82-10.82,10.82h-32.36c-5.98,0-10.82-4.85-10.82-10.82v-32.23c0-5.66,4.31-10.32,9.82-10.88.37-.04.74-.07,1.12-.07Zm-37.95,121.05c0,6.04-4.9,10.95-10.95,10.95h-32.23c-5.98,0-10.82-4.85-10.82-10.82v-32.36c0-5.98,4.85-10.82,10.82-10.82h32.23c6.05,0,10.95,4.91,10.95,10.95v32.11Zm-10.82-67.05h-32.36c-5.98,0-10.82-4.85-10.82-10.82v-32.36c0-5.98,4.85-10.82,10.82-10.82h32.23c6.05,0,10.95,4.91,10.95,10.95v32.23c0,5.98-4.85,10.82-10.82,10.82Zm171.82,67.05c0,6.04-4.86,10.95-10.87,10.95h-112.31c-5.98,0-10.82-4.85-10.82-10.82v-32.36c0-5.98,4.85-10.82,10.82-10.82h112.31c6.01,0,10.87,4.91,10.87,10.95v32.11Zm68.18,10.95h-32.36c-5.98,0-10.82-4.85-10.82-10.82v-32.36c0-5.98,4.85-10.82,10.82-10.82h32.36c5.98,0,10.82,4.85,10.82,10.82v32.36c0,5.98-4.85,10.82-10.82,10.82Zm0-78h-32.36c-5.98,0-10.82-4.85-10.82-10.82v-32.36c0-5.98,4.85-10.82,10.82-10.82h32.36c5.98,0,10.82,4.85,10.82,10.82v32.36c0,5.98-4.85,10.82-10.82,10.82Z"/>
  <path class="cls-2" d="m181.88,243l91.27-76.13c8.13-6.65,12.85-16.6,12.85-27.1V35c0-19.33-15.67-35-35-35H113c-19.33,0-35,15.67-35,35v105.18c0,10.27,4.51,20.03,12.34,26.68l91.53,76.15Z"/>
  <g>
    <path class="cls-1" d="m248.78,95.65c0,16.52-4.52,31.99-12.37,45.22-2.08,3.5-6.69,4.47-10.01,2.14-1.91-1.34-2.98-3.5-2.98-5.71,0-1.19.31-2.41.97-3.5,6.66-11.17,10.47-24.21,10.47-38.15s-3.57-26.1-9.8-37.01c-1.77-3.11-.87-7.05,2.08-9.1,3.35-2.36,8.02-1.34,10.05,2.21,7.38,12.94,11.6,27.95,11.6,43.9Z"/>
    <path class="cls-1" d="m223.13,95.54c0,10.37-2.7,20.12-7.43,28.57-1.73,3.09-5.81,3.94-8.7,1.9h-.02c-2.55-1.8-3.31-5.22-1.78-7.95,3.71-6.68,5.82-14.35,5.82-22.51s-1.91-15.1-5.28-21.53c-1.42-2.72-.65-6.07,1.85-7.82,3.01-2.11,7.17-1.06,8.87,2.19,4.27,8.12,6.68,17.36,6.68,27.16Z"/>
    <path class="cls-1" d="m189,52.58v87.5c0,6.39-7.67,9.71-12.36,5.33l-26.37-24.54c-.6-.55-1.4-.88-2.21-.88h-17.61c-6.33,0-11.45-5.13-11.45-11.45v-24.09c0-6.33,5.13-11.45,11.45-11.45h17.21c.83,0,1.61-.31,2.21-.88l26.76-24.89c4.69-4.38,12.36-1.05,12.36,5.35Z"/>
  </g>
</svg>